<?xml version="1.0" encoding="utf-8"?>
<svg xmlns="http://www.w3.org/2000/svg" xmlns:xlink="http://www.w3.org/1999/xlink" style="margin: auto; background: rgb(255, 255, 255); display: block; shape-rendering: auto;" width="207px" height="207px" viewBox="0 0 100 100" preserveAspectRatio="xMidYMid">
<g transform="rotate(0 50 50)">
  <rect x="49.5" y="16.5" rx="0" ry="0" width="1" height="29" fill="#686868">
    <animate attributeName="opacity" values="1;0" keyTimes="0;1" dur="0.7633587786259541s" begin="-0.7270083605961468s" repeatCount="indefinite"></animate>
  </rect>
</g><g transform="rotate(17.142857142857142 50 50)">
  <rect x="49.5" y="16.5" rx="0" ry="0" width="1" height="29" fill="#686868">
    <animate attributeName="opacity" values="1;0" keyTimes="0;1" dur="0.7633587786259541s" begin="-0.6906579425663395s" repeatCount="indefinite"></animate>
  </rect>
</g><g transform="rotate(34.285714285714285 50 50)">
  <rect x="49.5" y="16.5" rx="0" ry="0" width="1" height="29" fill="#686868">
    <animate attributeName="opacity" values="1;0" keyTimes="0;1" dur="0.7633587786259541s" begin="-0.6543075245365322s" repeatCount="indefinite"></animate>
  </rect>
</g><g transform="rotate(51.42857142857143 50 50)">
  <rect x="49.5" y="16.5" rx="0" ry="0" width="1" height="29" fill="#686868">
    <animate attributeName="opacity" values="1;0" keyTimes="0;1" dur="0.7633587786259541s" begin="-0.6179571065067248s" repeatCount="indefinite"></animate>
  </rect>
</g><g transform="rotate(68.57142857142857 50 50)">
  <rect x="49.5" y="16.5" rx="0" ry="0" width="1" height="29" fill="#686868">
    <animate attributeName="opacity" values="1;0" keyTimes="0;1" dur="0.7633587786259541s" begin="-0.5816066884769174s" repeatCount="indefinite"></animate>
  </rect>
</g><g transform="rotate(85.71428571428571 50 50)">
  <rect x="49.5" y="16.5" rx="0" ry="0" width="1" height="29" fill="#686868">
    <animate attributeName="opacity" values="1;0" keyTimes="0;1" dur="0.7633587786259541s" begin="-0.5452562704471101s" repeatCount="indefinite"></animate>
  </rect>
</g><g transform="rotate(102.85714285714286 50 50)">
  <rect x="49.5" y="16.5" rx="0" ry="0" width="1" height="29" fill="#686868">
    <animate attributeName="opacity" values="1;0" keyTimes="0;1" dur="0.7633587786259541s" begin="-0.5089058524173028s" repeatCount="indefinite"></animate>
  </rect>
</g><g transform="rotate(120 50 50)">
  <rect x="49.5" y="16.5" rx="0" ry="0" width="1" height="29" fill="#686868">
    <animate attributeName="opacity" values="1;0" keyTimes="0;1" dur="0.7633587786259541s" begin="-0.4725554343874954s" repeatCount="indefinite"></animate>
  </rect>
</g><g transform="rotate(137.14285714285714 50 50)">
  <rect x="49.5" y="16.5" rx="0" ry="0" width="1" height="29" fill="#686868">
    <animate attributeName="opacity" values="1;0" keyTimes="0;1" dur="0.7633587786259541s" begin="-0.4362050163576881s" repeatCount="indefinite"></animate>
  </rect>
</g><g transform="rotate(154.28571428571428 50 50)">
  <rect x="49.5" y="16.5" rx="0" ry="0" width="1" height="29" fill="#686868">
    <animate attributeName="opacity" values="1;0" keyTimes="0;1" dur="0.7633587786259541s" begin="-0.39985459832788073s" repeatCount="indefinite"></animate>
  </rect>
</g><g transform="rotate(171.42857142857142 50 50)">
  <rect x="49.5" y="16.5" rx="0" ry="0" width="1" height="29" fill="#686868">
    <animate attributeName="opacity" values="1;0" keyTimes="0;1" dur="0.7633587786259541s" begin="-0.3635041802980734s" repeatCount="indefinite"></animate>
  </rect>
</g><g transform="rotate(188.57142857142858 50 50)">
  <rect x="49.5" y="16.5" rx="0" ry="0" width="1" height="29" fill="#686868">
    <animate attributeName="opacity" values="1;0" keyTimes="0;1" dur="0.7633587786259541s" begin="-0.3271537622682661s" repeatCount="indefinite"></animate>
  </rect>
</g><g transform="rotate(205.71428571428572 50 50)">
  <rect x="49.5" y="16.5" rx="0" ry="0" width="1" height="29" fill="#686868">
    <animate attributeName="opacity" values="1;0" keyTimes="0;1" dur="0.7633587786259541s" begin="-0.2908033442384587s" repeatCount="indefinite"></animate>
  </rect>
</g><g transform="rotate(222.85714285714286 50 50)">
  <rect x="49.5" y="16.5" rx="0" ry="0" width="1" height="29" fill="#686868">
    <animate attributeName="opacity" values="1;0" keyTimes="0;1" dur="0.7633587786259541s" begin="-0.2544529262086514s" repeatCount="indefinite"></animate>
  </rect>
</g><g transform="rotate(240 50 50)">
  <rect x="49.5" y="16.5" rx="0" ry="0" width="1" height="29" fill="#686868">
    <animate attributeName="opacity" values="1;0" keyTimes="0;1" dur="0.7633587786259541s" begin="-0.21810250817884405s" repeatCount="indefinite"></animate>
  </rect>
</g><g transform="rotate(257.14285714285717 50 50)">
  <rect x="49.5" y="16.5" rx="0" ry="0" width="1" height="29" fill="#686868">
    <animate attributeName="opacity" values="1;0" keyTimes="0;1" dur="0.7633587786259541s" begin="-0.1817520901490367s" repeatCount="indefinite"></animate>
  </rect>
</g><g transform="rotate(274.2857142857143 50 50)">
  <rect x="49.5" y="16.5" rx="0" ry="0" width="1" height="29" fill="#686868">
    <animate attributeName="opacity" values="1;0" keyTimes="0;1" dur="0.7633587786259541s" begin="-0.14540167211922936s" repeatCount="indefinite"></animate>
  </rect>
</g><g transform="rotate(291.42857142857144 50 50)">
  <rect x="49.5" y="16.5" rx="0" ry="0" width="1" height="29" fill="#686868">
    <animate attributeName="opacity" values="1;0" keyTimes="0;1" dur="0.7633587786259541s" begin="-0.10905125408942203s" repeatCount="indefinite"></animate>
  </rect>
</g><g transform="rotate(308.57142857142856 50 50)">
  <rect x="49.5" y="16.5" rx="0" ry="0" width="1" height="29" fill="#686868">
    <animate attributeName="opacity" values="1;0" keyTimes="0;1" dur="0.7633587786259541s" begin="-0.07270083605961468s" repeatCount="indefinite"></animate>
  </rect>
</g><g transform="rotate(325.7142857142857 50 50)">
  <rect x="49.5" y="16.5" rx="0" ry="0" width="1" height="29" fill="#686868">
    <animate attributeName="opacity" values="1;0" keyTimes="0;1" dur="0.7633587786259541s" begin="-0.03635041802980734s" repeatCount="indefinite"></animate>
  </rect>
</g><g transform="rotate(342.85714285714283 50 50)">
  <rect x="49.5" y="16.5" rx="0" ry="0" width="1" height="29" fill="#686868">
    <animate attributeName="opacity" values="1;0" keyTimes="0;1" dur="0.7633587786259541s" begin="0s" repeatCount="indefinite"></animate>
  </rect>
</g>
<!-- [ldio] generated by https://loading.io/ --></svg>